<svg xmlns="http://www.w3.org/2000/svg" width="233" height="148" viewBox="0 0 233 148">
  <g id="Group_150" data-name="Group 150" transform="translate(-48 -1335)">
    <text id="uto_School" data-name="uto
      School" transform="translate(170 1398)" fill="#fff" stroke="#707070" stroke-width="1" font-size="45" font-family="Poppins-SemiBold, Poppins" font-weight="600"><tspan x="-37.958" y="0">uto</tspan><tspan x="-109.215" y="68" xml:space="preserve">      School</tspan></text>
    <path id="ic_local_taxi_24px" d="M72.282,16.1a6.5,6.5,0,0,0-6.18-4.4H55.222V3H29.111v8.7H18.231a6.544,6.544,0,0,0-6.18,4.4L3,42.167V76.982a4.365,4.365,0,0,0,4.352,4.352H11.7a4.365,4.365,0,0,0,4.352-4.352V72.63H68.278v4.352a4.365,4.365,0,0,0,4.352,4.352h4.352a4.365,4.365,0,0,0,4.352-4.352V42.167ZM18.231,59.574a6.528,6.528,0,1,1,6.528-6.528A6.519,6.519,0,0,1,18.231,59.574Zm47.87,0a6.528,6.528,0,1,1,6.528-6.528A6.519,6.519,0,0,1,66.1,59.574ZM11.7,37.815l6.528-19.583H66.1L72.63,37.815Z" transform="translate(45 1332)" fill="#2697ff"/>
  </g>
</svg>
