<svg xmlns="http://www.w3.org/2000/svg" width="50.745" height="35.403" viewBox="0 0 50.745 35.403">
  <g id="car-svgrepo-com" transform="translate(0 -71.049)">
    <path id="Path_20" data-name="Path 20" d="M94.963,296.509a3.779,3.779,0,1,0-3.779-3.779A3.783,3.783,0,0,0,94.963,296.509Zm0-5.938A2.159,2.159,0,1,1,92.8,292.73,2.162,2.162,0,0,1,94.963,290.57Z" transform="translate(-81.339 -194.376)" fill="#212332"/>
    <path id="Path_21" data-name="Path 21" d="M312.595,288.951a3.779,3.779,0,1,0,3.779,3.779A3.783,3.783,0,0,0,312.595,288.951Zm0,5.938a2.159,2.159,0,1,1,2.159-2.159A2.162,2.162,0,0,1,312.595,294.889Z" transform="translate(-275.474 -194.376)" fill="#212332"/>
    <path id="Path_22" data-name="Path 22" d="M51.594,102.669h2.567a.81.81,0,1,0,0-1.62H51.594a6.2,6.2,0,0,0-3.69,1.594l-6.488,6.893a.81.81,0,0,0,.59,1.365h31.34a.81.81,0,0,0,.734-1.151l-3.331-7.165a3.208,3.208,0,0,0-2.42-1.536H57.4a.81.81,0,0,0-.81.81v7.423H43.881l5.2-5.528a4.8,4.8,0,0,1,2.511-1.085Zm6.616,0H68.327a1.869,1.869,0,0,1,.955.6l2.795,6.011H58.211v-6.613Z" transform="translate(-36.749 -26.761)" fill="#212332"/>
    <path id="Path_23" data-name="Path 23" d="M50.745,91.2A7.727,7.727,0,0,0,45.8,84.337l-3.787-1.262a3.578,3.578,0,0,1-1.749-1.554l-3.33-7.076a6.359,6.359,0,0,0-5.351-3.4H14.846A9.364,9.364,0,0,0,8.8,73.662L1.33,81.6A5.558,5.558,0,0,0,0,84.95V95.115a4.053,4.053,0,0,0,4.049,4.049H5.567a8.1,8.1,0,0,0,16.114,0h4.913a.81.81,0,1,0,0-1.62H21.681a8.1,8.1,0,0,0-16.114,0H4.049A2.432,2.432,0,0,1,1.62,95.115V84.95a3.971,3.971,0,0,1,.89-2.244l7.467-7.934a7.782,7.782,0,0,1,4.869-2.1H31.581a4.756,4.756,0,0,1,3.885,2.466L38.8,82.21a5.1,5.1,0,0,0,2.7,2.4l3.077,1.026a5.44,5.44,0,0,0,4.55,6.313v3.166a2.253,2.253,0,0,1-2.012,2.429H45.178a8.1,8.1,0,1,0,0,1.62h1.936a3.861,3.861,0,0,0,3.631-4.049V91.2Zm-37.121.676a6.478,6.478,0,1,1-6.478,6.478A6.485,6.485,0,0,1,13.624,91.876Zm23.5,12.956A6.478,6.478,0,1,1,43.6,98.354,6.485,6.485,0,0,1,37.121,104.832ZM46.114,86.57q0-.157.013-.312a6.362,6.362,0,0,1,2.9,4.024A3.827,3.827,0,0,1,46.114,86.57Z" fill="#212332"/>
  </g>
</svg>
