<svg xmlns="http://www.w3.org/2000/svg" width="20.018" height="16.667" viewBox="0 0 20.018 16.667">
  <g id="Path_39" data-name="Path 39" transform="translate(25.009 20) rotate(180)" fill="#212332">
    <path d="M 20 19.50000381469727 L 10.00000095367432 19.50000381469727 C 8.258530616760254 19.50000381469727 6.753880977630615 18.57008361816406 5.975070953369141 17.0124626159668 C 5.196270942687988 15.45484256744385 5.35512113571167 13.6931734085083 6.400001049041748 12.30000305175781 L 11.40000057220459 5.633333206176758 C 12.25794124603271 4.489403247833252 13.57009124755859 3.833333015441895 15.00000095367432 3.833333015441895 C 16.42991065979004 3.833333015441895 17.74206161499023 4.489403247833252 18.60000038146973 5.633333206176758 L 23.60000038146973 12.30000305175781 C 24.6448802947998 13.6931734085083 24.80373001098633 15.45484256744385 24.02493095397949 17.0124626159668 C 23.24612045288086 18.57008361816406 21.74147033691406 19.50000381469727 20 19.50000381469727 Z" stroke="none"/>
    <path d="M 15.00000095367432 4.333333969116211 C 13.72897148132324 4.333333969116211 12.5626106262207 4.916513442993164 11.80000114440918 5.933332443237305 L 6.80000114440918 12.60000324249268 C 5.871210098266602 13.83838272094727 5.730010986328125 15.4043025970459 6.422290802001953 16.78885269165039 C 7.114561080932617 18.17340278625488 8.452020645141602 19.00000381469727 10.00000190734863 19.00000381469727 L 20 19.00000381469727 C 21.54796981811523 19.00000381469727 22.88543128967285 18.17340278625488 23.57771110534668 16.78885269165039 C 24.26998138427734 15.4043025970459 24.12878036499023 13.83838272094727 23.20000076293945 12.60000324249268 L 18.20000076293945 5.933332443237305 C 17.43739128112793 4.916513442993164 16.27103042602539 4.333333969116211 15.00000095367432 4.333333969116211 M 15.00000095367432 3.333330154418945 C 16.5 3.333330154418945 18 3.999998092651367 19 5.333333969116211 L 24 12.00000286102295 C 26.47214126586914 15.29618263244629 24.12022018432617 20.00000381469727 20 20.00000381469727 L 10.00000190734863 20.00000381469727 C 5.879770278930664 20.00000381469727 3.527860641479492 15.29618263244629 6.000001907348633 12.00000286102295 L 11.00000190734863 5.333333969116211 C 12.00000190734863 3.999998092651367 13.50000190734863 3.333330154418945 15.00000095367432 3.333330154418945 Z" stroke="none" fill="#212332"/>
  </g>
</svg>
