<svg xmlns="http://www.w3.org/2000/svg" width="78.333" height="78.333" viewBox="0 0 78.333 78.333">
  <path id="ic_local_taxi_24px" d="M72.282,16.1a6.5,6.5,0,0,0-6.18-4.4H55.222V3H29.111v8.7H18.231a6.544,6.544,0,0,0-6.18,4.4L3,42.167V76.982a4.365,4.365,0,0,0,4.352,4.352H11.7a4.365,4.365,0,0,0,4.352-4.352V72.63H68.278v4.352a4.365,4.365,0,0,0,4.352,4.352h4.352a4.365,4.365,0,0,0,4.352-4.352V42.167ZM18.231,59.574a6.528,6.528,0,1,1,6.528-6.528A6.519,6.519,0,0,1,18.231,59.574Zm47.87,0a6.528,6.528,0,1,1,6.528-6.528A6.519,6.519,0,0,1,66.1,59.574ZM11.7,37.815l6.528-19.583H66.1L72.63,37.815Z" transform="translate(-3 -3)" fill="#2697ff"/>
</svg>
